<?xml version="1.0" standalone="no"?>
<!DOCTYPE svg PUBLIC "-//W3C//DTD SVG 1.1//EN" "http://www.w3.org/Graphics/SVG/1.1/DTD/svg11.dtd" >
<svg xmlns="http://www.w3.org/2000/svg">
<metadata>
<json>
<![CDATA[
{
	"fontFamily": "ico",
	"majorVersion": 1,
	"minorVersion": 0,
	"version": "Version 1.0",
	"fontId": "ico",
	"psName": "ico",
	"subFamily": "Regular",
	"fullName": "ico",
	"description": "Font generated by IcoMoon."
}
]]>
</json>
</metadata>
<defs>
<font id="ico" horiz-adv-x="1024">
<font-face units-per-em="1024" ascent="960" descent="-64" />
<missing-glyph horiz-adv-x="1024" />
<glyph unicode="&#x20;" horiz-adv-x="512" d="" />
<glyph unicode="&#xe900;" d="M511.985 960c188.205 0 341.349-159.433 341.349-355.367 0-188.615-309.681-629.268-322.87-647.932l-12.303-17.439c-1.452-2.053-3.729-3.262-6.175-3.262-2.415 0-4.692 1.209-6.144 3.262l-12.303 17.439c-13.19 18.664-322.87 459.317-322.87 647.932 0 195.934 153.113 355.367 341.318 355.367zM511.989 874.667c-141.154 0-255.989-126.218-255.989-281.332 0-149.32 232.26-498.17 242.153-512.946l9.228-13.806c1.089-1.625 2.797-2.582 4.608-2.582 1.834 0 3.542 0.957 4.631 2.582l9.228 13.806c9.892 14.776 242.153 363.626 242.153 512.946 0 155.115-114.858 281.332-256.011 281.332zM512 789.333c94.123 0 170.667-76.544 170.667-170.667 0-94.080-76.544-170.667-170.667-170.667-94.080 0-170.667 76.587-170.667 170.667 0 94.123 76.587 170.667 170.667 170.667zM512 704c-47.040 0-85.333-38.272-85.333-85.333 0-47.040 38.293-85.333 85.333-85.333 47.061 0 85.333 38.293 85.333 85.333 0 47.061-38.272 85.333-85.333 85.333z" />
<glyph unicode="&#xe901;" d="M-1109.333 2154.667h2901.333v-2901.333h-2901.333v2901.333z" />
<glyph unicode="&#xe902;" d="M128.062 703.967l387.258-355.072 384 352 73.449-67.328-460.707-422.4-460.8 422.4z" />
<glyph unicode="&#xe903;" d="M2389.333 1898.667h-2901.333v-2901.333h2901.333v2901.333z" />
<glyph unicode="&#xe904;" d="M59.452 478.17l452.548 452.548 60.34-60.34-422.378-422.378 422.378-422.378-60.34-60.34-482.718 482.718 30.17 30.17z" />
<glyph unicode="&#xe905;" d="M-1024 1984h2901.333v-2901.333h-2901.333v2901.333z" />
<glyph unicode="&#xe906;" d="M150.781 491.343l294.805 294.805-55.698 55.698-389.888-389.888 389.888-389.888 55.698 55.698-294.805 294.805h829.876v78.769h-829.876z" />
<glyph unicode="&#xe907;" d="M-787.692 1787.077h2678.154v-2678.154h-2678.154v2678.154z" />
<glyph unicode="&#xe908;" d="M964.548 417.83l-452.548-452.548-60.34 60.34 422.378 422.378-422.378 422.378 60.34 60.34 482.718-482.718-30.17-30.17z" />
<glyph unicode="&#xe909;" d="M-938.667 1898.667h2901.333v-2901.333h-2901.333v2901.333z" />
<glyph unicode="&#xe90a;" d="M829.876 412.574l-294.805-294.805 55.698-55.698 389.888 389.888-389.888 389.888-55.698-55.698 294.805-294.805h-829.876v-78.769h829.876z" />
<glyph unicode="&#xe90b;" d="M-787.692 1787.077h2678.154v-2678.154h-2678.154v2678.154z" />
<glyph unicode="&#xe90c;" d="M895.938 192.033l-387.258 355.072-384-352-73.449 67.328 460.707 422.4 460.8-422.4z" />
<glyph unicode="&#xe90d;" d="M-938.667-746.667h2901.333v2901.333h-2901.333v-2901.333z" />
<glyph unicode="&#xe90e;" d="M853.333 21.476h-682.667v683.806h682.667v-683.806zM425.045 790.758c0 46.2 38.997 83.766 86.955 83.766s86.955-37.567 86.955-83.766v0h-173.909zM684.288 790.758v0c0 93.468-77.141 169.242-172.288 169.242s-172.288-75.774-172.288-169.242v0h-254.379v-854.758h853.333v854.758h-254.379z" />
<glyph unicode="&#xe90f;" d="M0 960h1024v-1024h-1024v1024z" />
<glyph unicode="&#xe910;" d="M931.024 832.021l-558.545-558.545-279.388 279.273-93.091-93.091 372.479-372.479 651.521 651.867z" />
<glyph unicode="&#xe911;" d="M-1664 2624h4352v-4352h-4352v4352z" />
<glyph unicode="&#xe912;" d="M511.994 571.739l-388.288 388.261-123.706-123.706 388.26-388.288-388.26-388.26 123.744-123.747 388.23 388.284 388.256-388.284 123.77 123.77-388.292 388.265 388.292 388.346-123.744 123.619-388.261-388.261z" />
<glyph unicode="&#xe913;" d="M-704 1728h2176v-2176h-2176v2176z" />
<glyph unicode="&#xe914;" d="M511.994 571.739l-388.288 388.261-123.706-123.706 388.26-388.288-388.26-388.26 123.744-123.747 388.23 388.284 388.256-388.284 123.77 123.77-388.292 388.265 388.292 388.346-123.744 123.619-388.261-388.261z" />
<glyph unicode="&#xe915;" d="M-1664 2624h4352v-4352h-4352v4352z" />
<glyph unicode="&#xe916;" d="M512-64c-282.77 0-512 229.23-512 512s229.23 512 512 512c282.77 0 512-229.23 512-512s-229.23-512-512-512zM512-21.333c259.206 0 469.333 210.128 469.333 469.333s-210.128 469.333-469.333 469.333c-259.206 0-469.333-210.128-469.333-469.333s210.128-469.333 469.333-469.333zM384 451.129v0.654c0 69.632 53.589 124.217 125.895 124.217 48.811 0 80.185-20.48 101.319-49.806l-49.806-38.571c-13.625 17.067-29.326 27.989-52.196 27.989-33.422 0-56.974-28.331-56.974-63.118v-0.711c0-35.783 23.552-63.772 56.974-63.772 24.889 0 39.595 11.605 53.902 29.013l49.806-35.499c-22.5-31.033-52.878-53.902-105.756-53.902-68.21 0-123.164 52.196-123.164 123.506z" />
<glyph unicode="&#xe917;" d="M-170.667 1130.667h1450.667v-1450.667h-1450.667v1450.667z" />
<glyph unicode="&#xe918;" d="M1003.926 584.556c-63.207 216.113-271.77 375.444-519.273 375.444h-484.653v-1024h484.653c122.989 0 236.146 39.697 326.966 105.734 128.817 93.651 212.38 240.621 212.38 406.18 0 47.338-7.351 93.046-20.074 136.641zM492.882 320h-108.882v256h108.882c81.126 0 147.118-57.444 147.118-128.055 0-70.541-65.992-127.945-147.118-127.945z" />
<glyph unicode="&#xe919;" d="M-1664 2624h4352v-4352h-4352v4352z" />
<glyph unicode="&#xe91a;" d="M1024 448c0-282.77-229.23-512-512-512s-512 229.23-512 512c0 282.77 229.23 512 512 512s512-229.23 512-512z" />
<glyph unicode="&#xe91b;" d="M-1228.8 2188.8h3481.6v-3481.6h-3481.6v3481.6z" />
<glyph unicode="&#xe91c;" d="M511.805 64l-511.805 768 1024-0.386z" />
<glyph unicode="&#xe91d;" d="M-1792 2880h4352v-4352h-4352v4352z" />
<glyph unicode="&#xe91e;" d="M469.333 249.308l-259.032 259.032-60.34-60.34 362.039-362.039 362.039 362.039-60.34 60.34-259.032-259.032v668.026h-85.333v-668.026zM85.333 21.333h853.333v-85.333h-853.333v85.333z" />
<glyph unicode="&#xe91f;" d="M-938.667 1898.667h2901.333v-2901.333h-2901.333v2901.333z" />
<glyph unicode="&#xe920;" d="M227.556 621.356h102.363v102.888c0 45.333 1.106 115.35 33.015 158.636 33.539 45.875 79.654 77.121 158.901 77.121 129.147 0 183.589-19.084 183.589-19.084l-25.62-156.83c0 0-42.68 12.763-82.449 12.763-39.827 0-75.52-14.75-75.52-55.929v-119.564h163.268l-11.354-153.158h-151.914v-532.198h-191.915v532.198h-102.363v153.158z" />
<glyph unicode="&#xe921;" d="M-1479.111 2325.333h3868.444v-3868.444h-3868.444v3868.444z" />
<glyph unicode="&#xe922;" d="M944.38 851.803c-105.977 110.106-277.951 110.154-384.021 0l-48.404-50.316-48.451 50.316c-106.070 110.154-277.998 110.106-384.021 0-105.977-110.106-105.977-288.652 0-398.758l48.451-50.364-0.326-0.29 384.021-398.806 0.326 0.338 0.326-0.338 383.975 398.806-0.279 0.29 48.404 50.364c106.024 110.106 106.024 288.652 0 398.758z" />
<glyph unicode="&#xe923;" d="M-358.4 1344h1740.8v-1740.8h-1740.8v1740.8z" />
<glyph unicode="&#xe924;" d="M512-64c-282.77 0-512 229.23-512 512s229.23 512 512 512c282.77 0 512-229.23 512-512s-229.23-512-512-512zM512-21.333c259.206 0 469.333 210.128 469.333 469.333s-210.128 469.333-469.333 469.333c-259.206 0-469.333-210.128-469.333-469.333s210.128-469.333 469.333-469.333zM469.333 618.667h85.333v-85.333h-85.333v85.333zM469.333 490.667h85.333v-213.333h-85.333v213.333z" />
<glyph unicode="&#xe925;" d="M-213.333 1216h1450.667v-1450.667h-1450.667v1450.667z" />
<glyph unicode="&#xe926;" d="M393.813 960h236.374c136.937 0 186.594-14.258 236.656-41.032s89.351-66.063 116.125-116.125c26.774-50.062 41.032-99.719 41.032-236.656v-236.374c0-136.937-14.258-186.594-41.032-236.656s-66.063-89.351-116.125-116.125c-50.062-26.774-99.719-41.032-236.656-41.032h-236.374c-136.937 0-186.594 14.258-236.656 41.032s-89.351 66.063-116.125 116.125c-26.774 50.062-41.032 99.719-41.032 236.656v236.374c0 136.937 14.258 186.594 41.032 236.656s66.063 89.351 116.125 116.125c50.062 26.774 99.719 41.032 236.656 41.032zM364.942 857.6c-91.292 0-124.396-9.505-157.771-27.354s-59.568-44.042-77.417-77.417c-17.849-33.375-27.354-66.479-27.354-157.771v-294.116c0-91.292 9.505-124.396 27.354-157.771s44.042-59.568 77.417-77.417c33.375-17.849 66.479-27.354 157.771-27.354h294.116c91.292 0 124.396 9.505 157.771 27.354s59.568 44.042 77.417 77.417c17.849 33.375 27.354 66.479 27.354 157.771v294.116c0 91.292-9.505 124.396-27.354 157.771s-44.042 59.568-77.417 77.417c-33.375 17.849-66.479 27.354-157.771 27.354h-294.116zM512 243.2c-113.108 0-204.8 91.692-204.8 204.8s91.692 204.8 204.8 204.8c113.108 0 204.8-91.692 204.8-204.8s-91.692-204.8-204.8-204.8zM512 345.6c56.554 0 102.4 45.846 102.4 102.4s-45.846 102.4-102.4 102.4c-56.554 0-102.4-45.846-102.4-102.4s45.846-102.4 102.4-102.4zM768.035 755.2c28.27 0 51.165-22.864 51.165-51.165s-22.895-51.235-51.165-51.235c-28.27 0-51.235 22.934-51.235 51.235s22.965 51.165 51.235 51.165z" />
<glyph unicode="&#xe927;" d="M-1126.4 2086.4h3481.6v-3481.6h-3481.6v3481.6z" />
<glyph unicode="&#xe928;" d="M511.757 960c-282.605 0-511.757-179.599-511.757-401.276 0-142.39 94.911-267.41 237.446-338.766l-48.221-178.672c-1.845-5.485-0.315-11.293 3.691-15.248 2.758-2.758 6.438-4.278 10.433-4.278 3.083 0 6.144 1.218 8.912 3.351l207.343 139.049c30.113-4.267 60.835-6.703 92.154-6.703 282.605 0 511.778 179.588 511.778 401.266s-229.173 401.276-511.778 401.276z" />
<glyph unicode="&#xe929;" d="M-1664 2496h4352v-4352h-4352v4352z" />
<glyph unicode="&#xe92a;" d="M0 490.667h1024v-85.333h-1024v85.333z" />
<glyph unicode="&#xe92b;" d="M-1194.667 1856h2901.333v-2901.333h-2901.333v2901.333z" />
<glyph unicode="&#xe92c;" d="M0 958.909c0.723-312.052 0.241-624.164 0.241-936.216 116.873-0.723 233.896-0.512 350.708-0.12 1.776 154.716-2.138 309.583 2.077 464.299 38.355-53.559 73.339-109.467 112.477-162.484 65.421-101.609 139.482-197.618 202.405-300.822 117.655-3.101 235.341 0.12 353.117-1.806 1.234 14.662 2.529 29.263 2.529 43.985-1.746 297.812 1.355 595.713-1.656 893.495-116.421 0.933-232.752-0.241-349.113 0.482-0.873-155.589 0.933-311.269-0.994-466.708-108.112 153.843-210.293 312.232-320.963 464.119-116.662 5.299-233.956 1.596-350.829 1.776z" />
<glyph unicode="&#xe92d;" d="M-1536 2624h4352v-4352h-4352v4352z" />
<glyph unicode="&#xe92e;" d="M469.333 490.667h-469.333v-85.333h469.333v-469.333h85.333v469.333h469.333v85.333h-469.333v469.333h-85.333v-469.333z" />
<glyph unicode="&#xe92f;" d="M-853.333 1984h2901.333v-2901.333h-2901.333v2901.333z" />
<glyph unicode="&#xe930;" d="M512-64c-282.77 0-512 229.23-512 512s229.23 512 512 512c282.77 0 512-229.23 512-512s-229.23-512-512-512zM512-21.333c259.206 0 469.333 210.128 469.333 469.333s-210.128 469.333-469.333 469.333c-259.206 0-469.333-210.128-469.333-469.333s210.128-469.333 469.333-469.333zM426.667 576h118.997c76.331 0 113.408-33.237 113.408-93.397 0-64.811-39.253-98.048-111.317-98.048h-40.917v-95.104h-80.171v286.549zM536.235 436.139c29.397 0 39.68 13.653 39.68 42.197 0 32-11.947 42.667-37.973 42.667h-31.104v-84.864h29.397z" />
<glyph unicode="&#xe931;" d="M-213.333 1258.667h1450.667v-1450.667h-1450.667v1450.667z" />
<glyph unicode="&#xe932;" d="M512 960c-282.795 0-512-229.248-512-512 0-282.795 229.205-512 512-512s512 229.205 512 512c0 282.752-229.205 512-512 512zM512 874.667c235.264 0 426.667-191.403 426.667-426.667s-191.403-426.667-426.667-426.667c-235.264 0-426.667 191.403-426.667 426.667s191.403 426.667 426.667 426.667zM512 695.71c33.536 0 78.123-9.685 78.123-93.184 0-52.693-37.248-100.651-78.123-100.651-40.832 0-78.080 47.957-78.080 100.651 0 83.499 44.587 93.184 78.080 93.184zM512 442.099h0.043c74.752 0.043 137.813 73.472 137.813 160.427 0 95.744-51.541 152.917-137.813 152.917h-0.043c-86.272 0-137.813-57.173-137.813-152.917 0-86.955 63.061-160.384 137.813-160.427zM512.043 406.332h-0.043c-152.96-0.043-233.813-75.605-233.813-218.709h59.733c0 109.952 53.717 158.976 174.080 158.976 120.405 0 174.123-49.024 174.123-158.976h59.733c0 143.104-80.853 218.667-233.813 218.709z" />
<glyph unicode="&#xe933;" d="M-170.667 1173.333h1450.667v-1450.667h-1450.667v1450.667z" />
<glyph unicode="&#xe934;" d="M686.127 187.627h59.733c0 143.104-80.853 218.667-233.813 218.709h-0.043c-152.96-0.043-233.856-75.605-233.856-218.709h59.776c0 109.952 53.717 158.976 174.080 158.976 120.405 0 174.123-49.024 174.123-158.976zM512.004 755.477v0c-86.315-0.043-137.856-57.216-137.856-152.96 0-86.912 63.104-160.384 137.856-160.427h0.043c74.752 0.043 137.813 73.515 137.813 160.427 0 95.744-51.541 152.917-137.813 152.96h-0.043zM512.004 960.021c282.795 0 512-229.291 512-512 0-282.795-229.205-512-512-512s-512 229.205-512 512c0 282.709 229.205 512 512 512zM512 501.854c40.875 0 78.123 48 78.123 100.651 0 83.541-44.587 93.184-78.123 93.184-33.493 0-78.080-9.643-78.080-93.184 0-52.651 37.248-100.651 78.080-100.651z" />
<glyph unicode="&#xe935;" d="M-256 1173.333h1450.667v-1450.667h-1450.667v1450.667z" />
<glyph unicode="&#xe936;" d="M1024 448c0-282.77-229.23-512-512-512s-512 229.23-512 512c0 282.77 229.23 512 512 512s512-229.23 512-512z" />
<glyph unicode="&#xe937;" d="M-298.667 1216h1450.667v-1450.667h-1450.667v1450.667z" />
<glyph unicode="&#xe938;" d="M0 550.4h1024v-204.8h-1024v204.8z" />
<glyph unicode="&#xe939;" d="M-1331.2 2291.2h3481.6v-3481.6h-3481.6v3481.6z" />
<glyph unicode="&#xe93a;" d="M428.956 279.589c-138.71 0-251.548 112.837-251.548 251.548 0 138.664 112.837 251.456 251.548 251.456 138.664 0 251.456-112.791 251.456-251.456 0-138.71-112.791-251.548-251.456-251.548zM772.486 531.136c0 189.72-153.811 343.53-343.53 343.53-189.858 0-343.622-153.811-343.622-343.53 0-189.812 153.765-343.622 343.622-343.622 80.243 0 153.857 27.714 212.324 73.844l232.719-229.358 64.636 65.511-233.363 230.048c42.078 57.040 67.214 127.247 67.214 203.577z" />
<glyph unicode="&#xe93b;" d="M0 960h1024v-1024h-1024v1024z" />
<glyph unicode="&#xe93c;" horiz-adv-x="725" d="M0 960l511.953-512-511.953-512h200.937l512.047 512-512.047 512z" />
<glyph unicode="&#xe93d;" horiz-adv-x="725" d="M-341.333 1173.333h1450.667v-1450.667h-1450.667v1450.667z" />
<glyph unicode="&#xe93e;" d="M512-64c-282.77 0-512 229.23-512 512s229.23 512 512 512c282.77 0 512-229.23 512-512s-229.23-512-512-512zM512-21.333c259.206 0 469.333 210.128 469.333 469.333s-210.128 469.333-469.333 469.333c-259.206 0-469.333-210.128-469.333-469.333s210.128-469.333 469.333-469.333zM516.292 618.683h46.858v-314.469h-67.795v244.889l-54.445-13.388-14.243 56.192 89.625 26.776z" />
<glyph unicode="&#xe93f;" d="M-42.667 1002.667h1066.667v-1152h-1066.667v1152z" />
<glyph unicode="&#xe940;" d="M512-64c-282.77 0-512 229.23-512 512s229.23 512 512 512c282.77 0 512-229.23 512-512s-229.23-512-512-512zM512-21.333c259.206 0 469.333 210.128 469.333 469.333s-210.128 469.333-469.333 469.333c-259.206 0-469.333-210.128-469.333-469.333s210.128-469.333 469.333-469.333zM384 343.534l109.012 89.386c40.733 33.671 56.613 51.462 56.613 78.618 0 27.585-18.26 42.567-43.971 42.567-25.244 0-42.606-14.046-66.913-43.971l-50.565 40.694c32.345 43.971 63.675 67.849 122.16 67.849 67.849 0 112.796-39.758 112.796-101.091v-0.936c0-54.74-28.092-81.895-86.109-126.803l-53.335-41.162h142.683v-62.231h-242.369v57.081z" />
<glyph unicode="&#xe941;" d="M-170.667 1088h1450.667v-1450.667h-1450.667v1450.667z" />
<glyph unicode="&#xe942;" d="M512-64c-282.77 0-512 229.23-512 512s229.23 512 512 512c282.77 0 512-229.23 512-512s-229.23-512-512-512zM512-21.333c259.206 0 469.333 210.128 469.333 469.333s-210.128 469.333-469.333 469.333c-259.206 0-469.333-210.128-469.333-469.333s210.128-469.333 469.333-469.333zM384 349.498l48.263 45.984c21.872-24.568 44.617-38.238 76.97-38.238 26.391 0 45.073 15.037 45.073 38.732v0.911c0 25.935-23.201 40.516-62.389 40.516h-29.163l-10.898 44.617 76.059 76.514h-125.271v60.11h215.417v-52.82l-80.615-76.97c43.288-7.291 85.628-30.074 85.628-89.273v-0.911c0-60.11-43.706-104.272-114.79-104.272-57.338 0-96.943 22.745-124.283 55.098z" />
<glyph unicode="&#xe943;" d="M-426.667 1386.667h1450.667v-1450.667h-1450.667v1450.667z" />
<glyph unicode="&#xe944;" d="M341.308 959.974h341.419v-170.667h255.915v-85.333h-85.333v-768h-682.667v768h-85.333v85.333h256v170.667zM426.641 789.308h170.752v85.333h-170.752v-85.333zM255.974 703.974v-682.667h512v682.667h-512zM385.365 192v341.333h85.333v-341.333h-85.333zM553.301 192v341.333h85.333v-341.333h-85.333z" />
<glyph unicode="&#xe945;" d="M-768 1642.667h2901.333v-2901.333h-2901.333v2901.333z" />
<glyph unicode="&#xe946;" d="M511.805 832l-511.805-768 1024 0.386z" />
<glyph unicode="&#xe947;" d="M-1664 2752h4352v-4352h-4352v4352z" />
<glyph unicode="&#xe948;" d="M218.785 789.333h586.43c76.076 0 103.663-7.921 131.476-22.795s49.64-36.701 64.514-64.514c14.874-27.812 22.795-55.399 22.795-131.476v-245.097c0-76.076-7.921-103.663-22.795-131.476s-36.701-49.64-64.514-64.514c-27.812-14.874-55.399-22.795-131.476-22.795h-586.43c-76.076 0-103.663 7.921-131.476 22.795s-49.64 36.701-64.514 64.514c-14.874 27.812-22.795 55.399-22.795 131.476v245.097c0 76.076 7.921 103.663 22.795 131.476s36.701 49.64 64.514 64.514c27.812 14.874 55.399 22.795 131.476 22.795zM682.667 447.948l-341.333 170.719v-341.333l341.333 170.614z" />
<glyph unicode="&#xe949;" d="M-1024 2154.667h2901.333v-2901.333h-2901.333v2901.333z" />
</font>
</defs>
</svg>
